<svg width="24" height="21" viewBox="0 0 24 21" fill="none" xmlns="http://www.w3.org/2000/svg">
<path d="M10.1707 12.0692C9.73862 12.0692 9.38835 12.4069 9.38835 12.8235C9.38835 13.2401 9.73862 13.5779 10.1707 13.5779H16.4295C16.8615 13.5779 17.2118 13.2401 17.2118 12.8235C17.2118 12.4069 16.8615 12.0692 16.4295 12.0692H10.1707Z" fill="#585858"/>
<path fill-rule="evenodd" clip-rule="evenodd" d="M1.54152 0.571545C1.43673 0.167387 1.01196 -0.0783392 0.592785 0.0227004C0.173608 0.12374 -0.0812504 0.533284 0.023544 0.937442L1.12065 5.16862L2.14167 9.27612C2.57582 11.0227 2.91754 12.3975 3.32306 13.4655C3.73902 14.561 4.24911 15.4115 5.06753 16.0637C5.13815 16.1199 5.21011 16.1747 5.28334 16.2278C6.13188 16.8431 7.10857 17.1232 8.31046 17.2579C9.48215 17.3891 10.9484 17.3891 12.8111 17.3891H13.4301C15.0418 17.3891 16.3105 17.3891 17.3326 17.2895C18.3795 17.1874 19.2409 16.9756 20.016 16.5076C20.3837 16.2857 20.7254 16.0259 21.0349 15.7329C21.6876 15.1151 22.102 14.3569 22.4489 13.3991C22.7876 12.464 23.0833 11.2744 23.459 9.76331L23.4808 9.67554C23.7073 8.7644 23.894 8.01345 23.9661 7.40508C24.041 6.77367 24.0104 6.17247 23.6835 5.62354C23.5437 5.38876 23.3689 5.17505 23.1647 4.98924C22.6872 4.5548 22.088 4.38603 21.4337 4.30906C20.8033 4.23489 20.0024 4.23491 19.0306 4.23493L2.4914 4.23493L1.54152 0.571545ZM3.65169 8.87791L2.87257 5.74356H18.9798C20.0151 5.74356 20.7198 5.74489 21.2442 5.80658C21.7556 5.86675 21.9653 5.97228 22.0908 6.08643C22.1836 6.17089 22.263 6.26803 22.3266 6.37475C22.4125 6.51897 22.47 6.74019 22.4115 7.23375C22.3515 7.73978 22.1886 8.40081 21.9473 9.37153C21.5596 10.9316 21.2814 12.0469 20.9717 12.9016C20.6673 13.742 20.3552 14.2622 19.9388 14.6563C19.71 14.8729 19.4575 15.0649 19.1857 15.229C18.6911 15.5275 18.0937 15.699 17.1752 15.7885C16.2409 15.8796 15.0512 15.8805 13.3873 15.8805H12.8609C10.9375 15.8805 9.56205 15.8793 8.4911 15.7593C7.43995 15.6415 6.7679 15.4166 6.22387 15.0221C6.16974 14.9829 6.11656 14.9424 6.06435 14.9008C5.53963 14.4827 5.15618 13.905 4.79238 12.9468C4.42174 11.9707 4.09997 10.6813 3.65169 8.87791Z" fill="#585858"/>
<path d="M10.6648 19.8109C10.6648 20.3956 10.1732 20.8696 9.56677 20.8696C8.96035 20.8696 8.46874 20.3956 8.46874 19.8109C8.46874 19.2262 8.96035 18.7522 9.56677 18.7522C10.1732 18.7522 10.6648 19.2262 10.6648 19.8109Z" fill="#585858"/>
<path d="M17.253 19.8109C17.253 20.3956 16.7614 20.8696 16.155 20.8696C15.5485 20.8696 15.0569 20.3956 15.0569 19.8109C15.0569 19.2262 15.5485 18.7522 16.155 18.7522C16.7614 18.7522 17.253 19.2262 17.253 19.8109Z" fill="#585858"/>
</svg>
