<svg width="14" height="14" viewBox="0 0 14 14" fill="none" xmlns="http://www.w3.org/2000/svg">
<path d="M3.07253 0.840426C3.28314 0.677613 3.31729 0.380644 3.1488 0.177127C2.9803 -0.0263893 2.67297 -0.0593858 2.46236 0.103427L0.834451 1.36185C0.623835 1.52467 0.589687 1.82164 0.75818 2.02515C0.926673 2.22867 1.234 2.26167 1.44462 2.09885L3.07253 0.840426Z" fill="#585858"/>
<path d="M11.5376 0.103427C11.327 -0.0593858 11.0197 -0.0263893 10.8512 0.177127C10.6827 0.380644 10.7169 0.677613 10.9275 0.840426L12.5554 2.09885C12.766 2.26167 13.0733 2.22867 13.2418 2.02515C13.4103 1.82164 13.3762 1.52467 13.1655 1.36185L11.5376 0.103427Z" fill="#585858"/>
<path d="M7.48837 4.71911C7.48837 4.45848 7.26972 4.2472 7 4.2472C6.73028 4.2472 6.51163 4.45848 6.51163 4.71911L6.51163 6.92136C6.51163 7.18199 6.29298 7.39327 6.02326 7.39327H5.04651C4.77679 7.39327 4.55814 7.60455 4.55814 7.86518C4.55814 8.1258 4.77679 8.33709 5.04651 8.33709H6.02326C6.83242 8.33709 7.48837 7.70324 7.48837 6.92136L7.48837 4.71911Z" fill="#585858"/>
<path fill-rule="evenodd" clip-rule="evenodd" d="M7 0.471927C3.13401 0.471927 0 3.50029 0 7.23596C0 10.9716 3.13401 14 7 14C10.866 14 14 10.9716 14 7.23596C14 3.50029 10.866 0.471927 7 0.471927ZM0.976744 7.23596C0.976744 4.02155 3.67345 1.41575 7 1.41575C10.3266 1.41575 13.0233 4.02155 13.0233 7.23596C13.0233 10.4504 10.3266 13.0562 7 13.0562C3.67345 13.0562 0.976744 10.4504 0.976744 7.23596Z" fill="#585858"/>
</svg>
