<svg width="17" height="18" viewBox="0 0 17 18" fill="none" xmlns="http://www.w3.org/2000/svg">
<path fill-rule="evenodd" clip-rule="evenodd" d="M8.24466 0.0632369C8.1662 0.0970551 8.06508 0.180488 8.01996 0.248659C7.94195 0.366577 7.93687 0.650694 7.91548 6.08572L7.89301 11.7988L5.71183 9.86998C4.51217 8.80911 3.46409 7.88605 3.38275 7.81877C3.26438 7.72083 3.18965 7.6964 3.00836 7.6964C2.8051 7.6964 2.76385 7.71416 2.60732 7.86914C2.45673 8.0183 2.43287 8.06912 2.43287 8.24079C2.43287 8.37642 2.46504 8.4837 2.53398 8.57799C2.58957 8.65404 3.75224 9.70325 5.11764 10.9096C6.79262 12.3894 7.68332 13.1463 7.85575 13.2364C8.08216 13.3546 8.15532 13.3699 8.4965 13.3699C8.82667 13.3699 8.917 13.3524 9.12884 13.2476C9.30312 13.1614 10.1181 12.469 11.8926 10.8997C13.2768 9.67566 14.4445 8.61933 14.4876 8.55236C14.5313 8.4845 14.5662 8.34456 14.5663 8.23625C14.5665 8.0697 14.5416 8.01723 14.3921 7.86914C14.2351 7.7138 14.1946 7.6964 13.9891 7.6964C13.796 7.6964 13.7347 7.71874 13.5921 7.84102C13.4993 7.92054 12.4521 8.84427 11.2649 9.8937L9.10637 11.8018L9.0839 6.08719C9.06251 0.648113 9.05748 0.366622 8.97929 0.248481C8.89147 0.115833 8.65783 -0.0027976 8.48989 5.02464e-05C8.4335 0.00102919 8.32312 0.0294632 8.24466 0.0632369ZM0.905825 16.0954C0.725123 16.1853 0.54541 16.4278 0.54541 16.5817C0.54541 16.7668 0.669758 16.9914 0.823586 17.0842C0.971212 17.1734 1.02887 17.1741 8.49969 17.1741C15.9705 17.1741 16.0282 17.1734 16.1758 17.0842C16.3296 16.9914 16.454 16.7668 16.454 16.5817C16.454 16.4278 16.2743 16.1853 16.0936 16.0954C15.9466 16.0223 15.4909 16.0176 8.49969 16.0176C1.50851 16.0176 1.05282 16.0223 0.905825 16.0954Z" fill="white"/>
</svg>
