<svg width="15" height="10" viewBox="0 0 15 10" fill="none" xmlns="http://www.w3.org/2000/svg">
<path fill-rule="evenodd" clip-rule="evenodd" d="M3.70484 3.75671C1.66369 5.82287 -0.0034056 7.57357 5.22451e-06 7.64729C0.00352974 7.72089 0.144624 7.89312 0.313687 8.02991L0.621002 8.27867L4.02398 4.84139C5.89572 2.95087 7.4813 1.40458 7.54758 1.40517C7.61387 1.40575 6.10765 2.98188 4.20043 4.9075L0.732763 8.40879L1.49872 9.20398L2.26468 9.99906L4.82973 7.36904C6.24056 5.92245 7.4199 4.71502 7.45049 4.68577C7.48107 4.65652 8.68043 5.84031 10.1156 7.31627L12.7251 10L13.4665 9.24377L14.2079 8.48753L11.5643 5.76483C10.1102 4.26746 8.97092 3.04225 9.03243 3.04225C9.09394 3.04225 10.3084 4.23938 11.7311 5.70259L14.3179 8.36303L14.6589 8.01201L15 7.66109L12.0459 4.62247L9.09177 1.58384L8.35026 2.34019L7.60886 3.09643L10.2525 5.81913C11.7065 7.3165 12.8458 8.54171 12.7843 8.54171C12.7228 8.54171 11.5082 7.34435 10.0852 5.88091L7.49801 3.22011L5.65878 5.09109C4.64725 6.12008 3.46665 7.32247 3.03541 7.76301C2.60405 8.20343 2.22636 8.5382 2.19601 8.50696C2.16565 8.47572 3.68005 6.88087 5.56135 4.96285L8.98183 1.47549L8.27147 0.737746C7.88071 0.331957 7.52837 0 7.48846 0C7.44855 0 5.74587 1.69056 3.70484 3.75671Z" fill="#ED6B40"/>
</svg>
