<svg width="21" height="14" viewBox="0 0 21 14" fill="none" xmlns="http://www.w3.org/2000/svg">
<path fill-rule="evenodd" clip-rule="evenodd" d="M5.18677 5.2594C2.32917 8.15202 -0.00476783 10.603 7.31432e-06 10.7062C0.00494163 10.8092 0.202474 11.0504 0.439162 11.2419L0.869403 11.5901L5.63357 6.77795C8.25401 4.13122 10.4738 1.96642 10.5666 1.96724C10.6594 1.96806 8.55071 4.17463 5.8806 6.87051L1.02587 11.7723L2.09821 12.8856L3.17055 13.9987L6.76162 10.3167C8.73678 8.29142 10.3879 6.60103 10.4307 6.56008C10.4735 6.51913 12.1526 8.17643 14.1618 10.2428L17.8151 14L18.8531 12.9413L19.891 11.8825L16.19 8.07077C14.1543 5.97445 12.5593 4.25915 12.6454 4.25915C12.7315 4.25915 14.4318 5.93513 16.4235 7.98362L20.0451 11.7082L20.5225 11.2168L21 10.7255L16.8642 6.47146L12.7285 2.21738L11.6904 3.27627L10.6524 4.335L14.3535 8.14678C16.3891 10.2431 17.9842 11.9584 17.8981 11.9584C17.8119 11.9584 16.1115 10.2821 14.1193 8.23327L10.4972 4.50815L7.9223 7.12753C6.50615 8.56811 4.85331 10.2515 4.24957 10.8682C3.64567 11.4848 3.11691 11.9535 3.07441 11.9097C3.03191 11.866 5.15207 9.63322 7.78589 6.94799L12.5746 2.06569L11.5801 1.03284C11.033 0.464739 10.5397 0 10.4838 0C10.428 0 8.04422 2.36678 5.18677 5.2594Z" fill="#ED6B40"/>
</svg>
