<svg width="16" height="14" viewBox="0 0 16 14" fill="none" xmlns="http://www.w3.org/2000/svg">
<path fill-rule="evenodd" clip-rule="evenodd" d="M11.6405 0.0888305C10.8205 -1.04308e-05 9.78692 -5.76764e-06 8.46838 9.50112e-08H6.96751C5.64897 -5.76764e-06 4.61541 -1.04308e-05 3.79542 0.0888305C2.95862 0.179492 2.28061 0.367822 1.70171 0.788417C1.35124 1.04304 1.04304 1.35124 0.788417 1.70171C0.672337 1.86148 0.572931 2.03022 0.488112 2.20982C0.228368 2.75982 0.11251 3.3976 0.0560464 4.15813C-3.23623e-06 4.91309 -1.7451e-06 5.83853 9.50111e-08 6.97958V7.03249C-5.76764e-06 8.35103 -1.04308e-05 9.38459 0.0888305 10.2046C0.179492 11.0414 0.367822 11.7194 0.788417 12.2983C1.04304 12.6488 1.35124 12.957 1.70171 13.2116C2.28061 13.6322 2.95862 13.8205 3.79542 13.9112C4.6154 14 5.64894 14 6.96744 14H8.4684C9.78691 14 10.8205 14 11.6405 13.9112C12.4773 13.8205 13.1553 13.6322 13.7342 13.2116C14.0847 12.957 14.3929 12.6488 14.6475 12.2983C15.0681 11.7194 15.2564 11.0414 15.3471 10.2046C15.4359 9.3846 15.4359 8.35106 15.4359 7.03256V6.97911C15.4359 5.83027 15.4359 4.8999 15.3786 4.14188C15.3209 3.37799 15.2025 2.7381 14.9367 2.18649C14.8543 2.01553 14.7585 1.85449 14.6475 1.70171C14.3929 1.35124 14.0847 1.04304 13.7342 0.788417C13.1553 0.367822 12.4773 0.179492 11.6405 0.0888305ZM2.33471 1.65967C2.69943 1.39468 3.16625 1.24022 3.91142 1.15949C4.66666 1.07766 5.64195 1.07692 7 1.07692H8.4359C9.79395 1.07692 10.7692 1.07766 11.5245 1.15949C12.2696 1.24022 12.7365 1.39468 13.1012 1.65967C13.3601 1.84778 13.5878 2.07545 13.776 2.33433L12.4139 3.69643C11.2065 4.90378 10.3385 5.77018 9.58982 6.3414C8.85356 6.90315 8.29634 7.12846 7.71795 7.12846C7.13956 7.12846 6.58234 6.90315 5.84608 6.3414C5.09739 5.77017 4.22938 4.90378 3.02204 3.69643L1.65994 2.33433C1.84809 2.07545 2.07579 1.84778 2.33471 1.65967ZM14.2063 3.42704C14.2496 3.65695 14.2818 3.91922 14.3048 4.223C14.3586 4.93585 14.359 5.82603 14.359 7C14.359 8.35805 14.3582 9.33334 14.2764 10.0886C14.1957 10.8337 14.0412 11.3006 13.7762 11.6653C13.588 11.9243 13.3602 12.1521 13.1012 12.3403C12.7365 12.6053 12.2696 12.7598 11.5245 12.8405C10.7692 12.9223 9.79395 12.9231 8.4359 12.9231H7C5.64195 12.9231 4.66666 12.9223 3.91142 12.8405C3.16625 12.7598 2.69943 12.6053 2.33471 12.3403C2.07567 12.1521 1.84787 11.9243 1.65967 11.6653C1.39468 11.3006 1.24022 10.8337 1.15949 10.0886C1.07766 9.33334 1.07692 8.35805 1.07692 7C1.07692 5.83437 1.07726 4.94842 1.13001 4.23786C1.15303 3.92778 1.18556 3.66072 1.22964 3.42704L2.28966 4.48706C3.46155 5.65896 4.37993 6.57735 5.19284 7.19758C6.02489 7.83241 6.80942 8.20539 7.71795 8.20539C8.62648 8.20539 9.41101 7.83241 10.2431 7.19758C11.056 6.57736 11.9743 5.65897 13.1462 4.48708L14.2063 3.42704Z" fill="#7A7A7A"/>
</svg>
