<svg width="11" height="14" viewBox="0 0 11 14" fill="none" xmlns="http://www.w3.org/2000/svg">
<path fill-rule="evenodd" clip-rule="evenodd" d="M5.5 3.73243C4.19819 3.73243 3.14286 4.77684 3.14286 6.06519C3.14286 7.35354 4.19819 8.39796 5.5 8.39796C6.80181 8.39796 7.85714 7.35354 7.85714 6.06519C7.85714 4.77684 6.80181 3.73243 5.5 3.73243ZM4.08571 6.06519C4.08571 5.29218 4.71891 4.66553 5.5 4.66553C6.28109 4.66553 6.91429 5.29218 6.91429 6.06519C6.91429 6.8382 6.28109 7.46485 5.5 7.46485C4.71891 7.46485 4.08571 6.8382 4.08571 6.06519Z" fill="#585858"/>
<path fill-rule="evenodd" clip-rule="evenodd" d="M5.5 0C2.43047 0 0 2.63931 0 5.82177C0 6.84242 0.512352 8.04427 1.15697 9.17214C1.81203 10.3183 2.64809 11.4624 3.38111 12.3875L3.40556 12.4183C3.76334 12.8699 4.06814 13.2546 4.3637 13.5203C4.68615 13.8102 5.04174 14 5.5 14C5.95827 14 6.31385 13.8102 6.6363 13.5203C6.93187 13.2546 7.23666 12.8699 7.59445 12.4183L7.61889 12.3875C8.35191 11.4624 9.18797 10.3183 9.84303 9.17214C10.4876 8.04427 11 6.84242 11 5.82177C11 2.63931 8.56953 0 5.5 0ZM0.942857 5.82177C0.942857 3.08903 3.01512 0.933106 5.5 0.933106C7.98488 0.933106 10.0571 3.08903 10.0571 5.82177C10.0571 6.58474 9.6551 7.60567 9.02236 8.71274C8.40005 9.80156 7.59579 10.9045 6.87696 11.8117C6.4879 12.3027 6.23174 12.6234 6.00234 12.8296C5.79313 13.0177 5.65348 13.0669 5.5 13.0669C5.34652 13.0669 5.20687 13.0177 4.99766 12.8296C4.76826 12.6234 4.5121 12.3027 4.12304 11.8117C3.40421 10.9045 2.59995 9.80156 1.97764 8.71274C1.3449 7.60567 0.942857 6.58474 0.942857 5.82177Z" fill="#585858"/>
</svg>
