<svg width="14" height="14" viewBox="0 0 14 14" fill="none" xmlns="http://www.w3.org/2000/svg">
<path fill-rule="evenodd" clip-rule="evenodd" d="M4.21301 0.521107C3.45686 -0.173702 2.29458 -0.173702 1.53842 0.521107C1.50745 0.549563 1.47439 0.582629 1.43146 0.625567L0.786419 1.27061C0.137333 1.9197 -0.135147 2.85541 0.0639835 3.7515C1.19379 8.83562 5.16438 12.8062 10.2485 13.936C11.1446 14.1351 12.0803 13.8627 12.7294 13.2136L13.3744 12.5686C13.4173 12.5256 13.4504 12.4926 13.4789 12.4616C14.1737 11.7054 14.1737 10.5431 13.4789 9.78699C13.4504 9.75601 13.4173 9.72293 13.3744 9.67997L12.3184 8.62399C11.5852 7.89082 10.478 7.68113 9.52753 8.09544C8.98339 8.33264 8.34951 8.21259 7.92978 7.79286L6.20714 6.07022C5.78741 5.65049 5.66736 5.01662 5.90456 4.47247C6.31887 3.52199 6.10918 2.41478 5.37602 1.68161L4.31998 0.625578C4.27705 0.582635 4.24398 0.549565 4.21301 0.521107ZM2.26785 1.31495C2.61156 0.999124 3.13987 0.999124 3.48358 1.31495C3.49544 1.32585 3.51099 1.34123 3.56566 1.3959L4.6137 2.44393C5.03343 2.86367 5.15348 3.49754 4.91629 4.04168C4.50197 4.99217 4.71166 6.09937 5.44483 6.83254L7.16746 8.55517C7.90063 9.28834 9.00784 9.49803 9.95832 9.08372C10.5025 8.84652 11.1363 8.96657 11.5561 9.3863L12.6041 10.4343C12.6588 10.489 12.6742 10.5046 12.6851 10.5164C13.0009 10.8601 13.0009 11.3884 12.6851 11.7321C12.6742 11.744 12.6588 11.7596 12.6041 11.8142L11.9671 12.4513C11.5786 12.8397 11.0186 13.0028 10.4824 12.8836C5.80686 11.8446 2.15539 8.19314 1.11639 3.51763C0.99722 2.98136 1.16029 2.42138 1.54874 2.03293L2.18577 1.3959C2.24044 1.34123 2.25599 1.32585 2.26785 1.31495Z" fill="#585858"/>
</svg>
