<svg width="16" height="16" viewBox="0 0 16 16" fill="none" xmlns="http://www.w3.org/2000/svg">
<path d="M8.74419 10.9767C8.74419 11.3877 8.411 11.7209 8 11.7209C7.589 11.7209 7.25581 11.3877 7.25581 10.9767C7.25581 10.5657 7.589 10.2326 8 10.2326C8.411 10.2326 8.74419 10.5657 8.74419 10.9767Z" fill="#FF2E2E"/>
<path d="M8.55814 4.27907C8.55814 3.97082 8.30825 3.72093 8 3.72093C7.69175 3.72093 7.44186 3.97082 7.44186 4.27907V8.74419C7.44186 9.05244 7.69175 9.30233 8 9.30233C8.30825 9.30233 8.55814 9.05244 8.55814 8.74419V4.27907Z" fill="#FF2E2E"/>
<path fill-rule="evenodd" clip-rule="evenodd" d="M8 0C3.58172 0 0 3.58172 0 8C0 12.4183 3.58172 16 8 16C12.4183 16 16 12.4183 16 8C16 3.58172 12.4183 0 8 0ZM1.11628 8C1.11628 4.19823 4.19823 1.11628 8 1.11628C11.8018 1.11628 14.8837 4.19823 14.8837 8C14.8837 11.8018 11.8018 14.8837 8 14.8837C4.19823 14.8837 1.11628 11.8018 1.11628 8Z" fill="#FF2E2E"/>
</svg>
