<svg width="25" height="15" viewBox="0 0 25 15" fill="none" xmlns="http://www.w3.org/2000/svg">
<path d="M24.8675 13.2498C24.8372 13.1845 24.809 13.1304 24.7828 13.0871C24.349 12.3059 23.5201 11.347 22.2966 10.2102L22.2708 10.1842L22.2578 10.1714L22.2447 10.1583H22.2316C21.6763 9.62898 21.3247 9.27305 21.1774 9.09083C20.908 8.7437 20.8476 8.39233 20.9949 8.03631C21.0989 7.76733 21.4897 7.19927 22.1664 6.33136C22.5223 5.8714 22.8042 5.50275 23.0123 5.22501C24.5137 3.22905 25.1646 1.95361 24.9649 1.39818L24.8873 1.26838C24.8352 1.19024 24.7007 1.11875 24.4841 1.05356C24.2669 0.988499 23.9893 0.97774 23.6507 1.0211L19.9021 1.04699C19.8414 1.02547 19.7547 1.02748 19.6417 1.05356C19.5288 1.07963 19.4724 1.09272 19.4724 1.09272L19.4072 1.12532L19.3554 1.16448C19.312 1.19037 19.2642 1.23592 19.2121 1.30102C19.1603 1.3659 19.1169 1.44203 19.0823 1.52879C18.6742 2.57879 18.2101 3.55503 17.6894 4.45745C17.3683 4.99555 17.0734 5.4619 16.8041 5.85676C16.5351 6.25148 16.3095 6.54231 16.1274 6.72873C15.9451 6.91533 15.7805 7.06482 15.6327 7.17775C15.4851 7.29072 15.3724 7.33846 15.2944 7.321C15.2162 7.30353 15.1426 7.28621 15.0729 7.26889C14.9515 7.19074 14.8538 7.08447 14.7802 6.94998C14.7063 6.81549 14.6565 6.64621 14.6305 6.44228C14.6046 6.23822 14.5892 6.06269 14.5849 5.91512C14.5808 5.76772 14.5827 5.55924 14.5915 5.29025C14.6005 5.02113 14.6046 4.83904 14.6046 4.74357C14.6046 4.41377 14.611 4.05584 14.6239 3.66969C14.637 3.28353 14.6476 2.97757 14.6565 2.75217C14.6654 2.52655 14.6695 2.28783 14.6695 2.03617C14.6695 1.78451 14.6542 1.58715 14.6239 1.4439C14.594 1.30084 14.5481 1.16197 14.4876 1.02734C14.4267 0.89285 14.3376 0.788812 14.2207 0.714955C14.1036 0.641189 13.958 0.582651 13.7847 0.539157C13.3247 0.435074 12.739 0.37877 12.0273 0.370016C10.4134 0.352692 9.37631 0.456912 8.91639 0.68254C8.73417 0.77787 8.56927 0.908122 8.42183 1.07289C8.26559 1.26387 8.24379 1.36809 8.35659 1.38523C8.87732 1.46323 9.24597 1.64984 9.46293 1.94485L9.54112 2.10118C9.60194 2.21398 9.66267 2.41366 9.72344 2.69997C9.78412 2.98628 9.82328 3.303 9.84052 3.64994C9.88383 4.28352 9.88383 4.82587 9.84052 5.27703C9.79707 5.72838 9.75604 6.07974 9.71687 6.33141C9.67771 6.58307 9.61917 6.78699 9.54112 6.94314C9.46293 7.09933 9.41092 7.1948 9.38484 7.22945C9.3588 7.2641 9.3371 7.28594 9.31987 7.29451C9.20708 7.33773 9.08977 7.35975 8.96837 7.35975C8.84678 7.35975 8.69934 7.29893 8.52582 7.17739C8.35235 7.05584 8.17231 6.88889 7.9857 6.67625C7.7991 6.46357 7.58866 6.16637 7.35427 5.78459C7.12008 5.40281 6.87708 4.9516 6.62542 4.43096L6.4172 4.05338C6.28704 3.81047 6.10924 3.45678 5.88361 2.99262C5.65785 2.52828 5.4583 2.07912 5.28482 1.64523C5.21548 1.46301 5.11131 1.32427 4.97248 1.22881L4.90733 1.18964C4.86402 1.155 4.7945 1.1182 4.69912 1.079C4.60361 1.03983 4.50395 1.01175 4.39973 0.994471L0.833215 1.02037C0.468763 1.02037 0.221479 1.10293 0.0912725 1.26783L0.0391624 1.34584C0.0131301 1.38929 0 1.45868 0 1.55419C0 1.64965 0.0260323 1.76682 0.0781424 1.90556C0.598788 3.12921 1.16498 4.30932 1.77671 5.44608C2.38845 6.58284 2.92004 7.49853 3.37116 8.19232C3.82237 8.88662 4.28228 9.5419 4.75091 10.1578C5.21954 10.774 5.52974 11.1688 5.68151 11.3423C5.83346 11.5161 5.95282 11.646 6.03958 11.7328L6.36505 12.0451C6.57331 12.2534 6.87913 12.5029 7.28265 12.7936C7.68627 13.0844 8.1331 13.3707 8.62338 13.6529C9.11375 13.9347 9.68423 14.1647 10.3351 14.3426C10.9859 14.5206 11.6194 14.592 12.2355 14.5576H13.7325C14.036 14.5313 14.266 14.4359 14.4224 14.2711L14.4742 14.2059C14.509 14.1541 14.5416 14.0736 14.5717 13.9653C14.6021 13.8569 14.6173 13.7374 14.6173 13.6074C14.6084 13.2343 14.6368 12.8981 14.7017 12.5988C14.7666 12.2995 14.8405 12.0739 14.9232 11.9219C15.0059 11.7701 15.0992 11.642 15.203 11.5381C15.307 11.434 15.3811 11.371 15.4246 11.3493C15.4679 11.3275 15.5024 11.3126 15.5284 11.3038C15.7367 11.2344 15.9818 11.3016 16.2641 11.5057C16.5461 11.7096 16.8107 11.9614 17.0582 12.2607C17.3055 12.5602 17.6026 12.8962 17.9497 13.2693C18.2969 13.6425 18.6006 13.9199 18.8608 14.1024L19.121 14.2586C19.2948 14.3628 19.5205 14.4583 19.7982 14.5451C20.0754 14.6318 20.3183 14.6535 20.5269 14.6101L23.859 14.5581C24.1886 14.5581 24.445 14.5036 24.6269 14.3953C24.8092 14.2868 24.9175 14.1673 24.9524 14.0374C24.9872 13.9073 24.9891 13.7596 24.959 13.5946C24.9282 13.43 24.8977 13.3148 24.8675 13.2498Z" fill="white"/>
</svg>
