<svg width="25" height="25" viewBox="0 0 25 25" fill="none" xmlns="http://www.w3.org/2000/svg">
<path fill-rule="evenodd" clip-rule="evenodd" d="M11.0633 0.0745979C5.28394 0.784428 0.741746 5.39159 0.143634 11.1506C0.0550036 12.0041 0.108686 13.6202 0.252835 14.4359C0.480997 15.7275 0.858555 16.8639 1.44538 18.0251L1.74024 18.6087L0.861651 21.798C0.378408 23.5521 -0.00922588 24.993 0.000167171 24.9999C0.00961269 25.0068 1.48138 24.628 3.27078 24.1582C5.87575 23.4743 6.55037 23.3139 6.65543 23.3537C6.72758 23.381 7.06998 23.5311 7.41632 23.6872C8.54118 24.1941 9.72244 24.5303 10.9654 24.6974C11.8293 24.8135 13.3453 24.8128 14.1856 24.6959C16.9438 24.3122 19.408 23.1001 21.3502 21.1716C22.3659 20.1633 23.0412 19.2409 23.6842 17.9842C24.2632 16.8524 24.6718 15.6186 24.9 14.3122C25.0335 13.5486 25.0333 11.305 24.8997 10.5049C24.674 9.15307 24.3257 8.07304 23.7305 6.8801C22.0368 3.48528 18.909 1.06528 15.1692 0.25615C14.0034 0.00392786 12.2648 -0.0729487 11.0633 0.0745979ZM14.343 2.23319C15.8483 2.50987 17.0966 3.00967 18.3311 3.83002C20.4389 5.23059 21.9904 7.40546 22.6037 9.81898C23.0541 11.5914 23.0186 13.6046 22.5071 15.3089C21.6801 18.0645 19.7088 20.3841 17.1293 21.6371C15.6295 22.3655 14.2418 22.6831 12.5589 22.6831C10.63 22.6831 8.9201 22.2179 7.17499 21.2183L6.88113 21.05L4.94988 21.5543C3.88768 21.8317 3.01056 22.0506 3.00069 22.0408C2.99083 22.0311 3.20876 21.205 3.48499 20.2051C3.76116 19.2053 3.98917 18.3505 3.99164 18.3055C3.9941 18.2606 3.8583 18.0009 3.68985 17.7283C1.21502 13.7251 1.86366 8.44569 5.24054 5.10683C6.92032 3.44595 9.04693 2.42528 11.4307 2.13582C12.0745 2.05764 13.6799 2.1113 14.343 2.23319ZM7.66017 6.78393C7.35671 6.93325 6.8022 7.58414 6.57037 8.06318C6.11499 9.00417 6.12428 10.1903 6.59561 11.2887C7.17483 12.6383 8.69031 14.5548 10.1864 15.8292C11.235 16.7225 12.1112 17.246 13.3985 17.7481C14.7135 18.2611 14.9657 18.3202 15.8386 18.3198C16.5251 18.3195 16.634 18.3065 16.9533 18.187C17.4781 17.9905 17.8698 17.7429 18.2601 17.3611C18.5629 17.0648 18.6239 16.9721 18.723 16.657C18.8466 16.2641 18.9172 15.6318 18.862 15.4129C18.8331 15.2985 18.6848 15.2056 17.9393 14.8346C16.5734 14.1549 16.0228 13.921 15.7888 13.921C15.5971 13.921 15.5644 13.9444 15.3327 14.247C14.8028 14.9387 14.3166 15.4744 14.19 15.506C14.0383 15.5438 13.7402 15.4354 13.0516 15.0917C11.9368 14.5352 11.0273 13.7911 10.2454 12.7958C9.81984 12.2541 9.43661 11.6368 9.43661 11.493C9.43661 11.4314 9.63392 11.1252 9.87509 10.8126C10.3477 10.1998 10.4861 9.97117 10.4861 9.80287C10.4861 9.74383 10.3836 9.45515 10.2584 9.16141C10.1331 8.86762 9.8805 8.26351 9.69699 7.81889C9.46951 7.26782 9.30983 6.95651 9.19533 6.84098L9.02731 6.67148L8.45795 6.67153C7.98069 6.67153 7.85165 6.68973 7.66017 6.78393Z" fill="white"/>
</svg>
